<svg width="32" height="32" xmlns="http://www.w3.org/2000/svg" viewBox="0 -0.5 32 32" shape-rendering="crispEdges">
<metadata>Made with Pixels to Svg https://codepen.io/shshaw/pen/XbxvNj</metadata>
<path stroke="#3b1725" d="M14 2h3M12 3h2M17 3h1M10 4h2M18 4h1M8 5h2M19 5h1M6 6h2M20 6h1M4 7h2M21 7h1M2 8h2M22 8h1M1 9h1M23 9h1M0 10h1M24 10h1M0 11h1M25 11h1M0 12h1M26 12h1M0 13h1M27 13h1M0 14h1M28 14h1M1 15h1M29 15h1M2 16h1M30 16h1M3 17h1M31 17h1M4 18h1M31 18h1M5 19h1M30 19h2M6 20h1M28 20h3M7 21h1M26 21h2M30 21h1M8 22h1M24 22h2M30 22h2M9 23h1M22 23h2M31 23h1M10 24h1M20 24h2M30 24h1M11 25h1M18 25h2M28 25h2M12 26h1M18 26h1M26 26h2M13 27h1M24 27h2M14 28h1M22 28h2M15 29h1M20 29h2M16 30h4" />
<path stroke="#bd4044" d="M14 3h3M12 4h3M10 5h1M18 5h1M8 6h1M15 6h3M6 7h1M18 7h1M20 7h1M4 8h3M18 8h1M21 8h1M2 9h3M12 9h4M3 10h1M8 10h1M12 10h2M8 11h1M14 11h5M2 12h1M8 12h1M19 12h4M2 13h2M9 13h2M23 13h1M26 13h1M2 14h3M11 14h4M24 14h1M27 14h1M3 15h2M16 15h5M27 15h2M4 16h1M22 16h1M28 16h2M6 17h2M18 17h2M21 17h2M25 17h1M29 17h2M6 18h3M15 18h1M20 18h2M25 18h1M29 18h2M7 19h3M15 19h1M24 19h1M29 19h1M7 20h4M16 20h1M22 20h2M27 20h1M9 21h2M17 21h3M25 21h1M15 22h1M23 22h1M12 23h2M16 23h1M21 23h1M30 23h1M12 24h3M17 24h3M28 24h2M12 25h4M26 25h2M14 26h2M24 26h2M15 27h1M22 27h2M19 28h3" />
<path stroke="#ff695a" d="M15 4h3M11 5h7M9 6h6M18 6h2M7 7h4M17 7h1M19 7h1M7 8h3M19 8h2M5 9h4M18 9h5M4 10h4M14 10h10M4 11h4M13 11h1M19 11h6M5 12h3M9 12h1M18 12h1M23 12h3M6 13h3M11 13h1M22 13h1M24 13h2M7 14h4M15 14h1M25 14h2M8 15h8M25 15h2M9 16h13M25 16h3M10 17h6M20 17h1M26 17h3M11 18h4M19 18h1M26 18h3M12 19h3M25 19h4M13 20h3M17 20h1M24 20h3M14 21h3M20 21h5M16 22h7M17 23h4" />
<path stroke="#ffd541" d="M11 7h6M10 8h8M9 9h3M16 9h2M9 10h3M9 11h4M10 12h8M12 13h10M16 14h8M21 15h4M23 16h2M16 17h2M23 17h2M16 18h3M22 18h3M16 19h8M18 20h4" />
<path stroke="#8e251d" d="M1 10h2M1 11h3M1 12h1M3 12h2M1 13h1M4 13h2M1 14h1M5 14h2M2 15h1M5 15h3M3 16h1M5 16h4M4 17h2M8 17h2M5 18h1M9 18h2M6 19h1M10 19h2M11 20h2M8 21h1M11 21h3M9 22h6M10 23h2M14 23h2M29 23h1M11 24h1M15 24h2M27 24h1M16 25h2M25 25h1M13 26h1M16 26h2M23 26h1M14 27h1M16 27h3M21 27h1M15 28h4M16 29h4" />
<path stroke="#e07438" d="M28 21h1M26 22h1M24 23h1M28 23h1M22 24h1M26 24h1M20 25h1M24 25h1M19 26h1M22 26h1M19 27h2" />
<path stroke="#edab50" d="M29 21h1M27 22h3M25 23h3M23 24h3M21 25h3M20 26h2" />
</svg>