<svg xmlns="http://www.w3.org/2000/svg" viewBox="0 -0.5 20 20" shape-rendering="crispEdges">
<metadata>Made with Pixels to Svg https://codepen.io/shshaw/pen/XbxvNj</metadata>
<path stroke="#391f21" d="M6 1h2M5 2h1M8 2h1M14 3h2M13 4h1M16 4h1M13 5h1M16 5h1M16 6h1M5 7h1M8 7h1M16 7h1M5 8h1M8 8h1M16 8h1M5 9h1M8 9h1M13 9h1M16 9h1M5 10h1M8 10h1M13 10h1M16 10h1M5 11h1M8 11h1M13 11h1M16 11h1M5 12h1M8 12h1M13 12h1M16 12h1M5 13h1M8 13h1M13 13h1M16 13h1M5 14h1M8 14h1M13 14h1M16 14h1M5 15h1M8 15h1M5 16h1M8 16h1M5 17h1M8 17h1M6 18h2" />
<path stroke="#bf6f4a" d="M6 2h2M14 5h2M6 8h2M14 8h2M6 13h2M14 13h2M6 16h2" />
<path stroke="#1c121c" d="M3 3h8M2 4h1M11 4h1M1 5h1M12 5h1M0 6h1M5 6h4M13 6h1M0 7h1M3 7h2M9 7h2M13 7h1M0 8h3M11 8h3M10 15h10M10 16h1M19 16h1M11 17h1M18 17h1M12 18h6" />
<path stroke="#657392" d="M3 4h1M10 4h1M4 6h1M9 6h1M2 7h1M11 7h1M12 16h6M13 17h4" />
<path stroke="#92a1b9" d="M4 4h6M2 5h10M1 6h3M10 6h3M1 7h1M12 7h1M11 16h1M18 16h1M12 17h1M17 17h1" />
<path stroke="#8a4836" d="M14 4h2M6 7h2M14 14h2M6 17h2" />
<path stroke="#e69c69" d="M14 6h2M14 7h2M6 9h2M14 9h2M6 10h2M14 10h2M6 11h2M14 11h2M6 12h2M14 12h2M6 14h2M6 15h2" />
</svg>