<svg xmlns="http://www.w3.org/2000/svg" width="32" height="32" viewBox="0 -0.5 32 32" shape-rendering="crispEdges">
<metadata>Made with Pixels to Svg https://codepen.io/shshaw/pen/XbxvNj</metadata>
<path stroke="#1c121c" d="M18 1h2M17 2h1M20 2h1M16 3h1M21 3h1M16 4h1M21 4h1M10 5h3M17 5h1M20 5h1M24 5h3M10 6h1M13 6h2M18 6h2M22 6h2M26 6h1M10 7h1M15 7h1M21 7h1M26 7h1M11 8h1M16 8h5M25 8h1M11 9h1M25 9h1M12 10h1M24 10h1M27 10h2M13 11h1M23 11h1M26 11h1M29 11h1M13 12h1M23 12h1M25 12h1M30 12h1M13 13h1M23 13h1M25 13h1M30 13h1M13 14h1M23 14h1M26 14h1M29 14h1M12 15h1M23 15h1M27 15h2M10 16h2M24 16h1M8 17h2M25 17h1M6 18h2M17 18h4M25 18h1M4 19h2M16 19h1M21 19h1M26 19h1M3 20h1M15 20h1M22 20h2M26 20h1M2 21h1M15 21h1M24 21h3M2 22h1M14 22h1M1 23h1M14 23h1M1 24h1M13 24h1M1 25h1M13 25h1M1 26h1M12 26h1M1 27h1M12 27h1M2 28h1M11 28h1M3 29h1M9 29h2M4 30h5" />
<path stroke="#a6fcdb" d="M18 2h2M17 3h1M20 3h1M17 4h1M20 4h1M18 5h2M17 11h3M27 11h2M16 12h2M20 12h1M26 12h1M29 12h1M16 13h2M20 13h1M26 13h1M29 13h1M16 14h1M18 14h3M27 14h2M17 15h3" />
<path stroke="#249fde" d="M18 3h1M18 4h2M18 10h1M16 11h1M20 11h1M27 12h1M15 13h1M21 13h1M27 13h2M16 15h1M20 15h1M18 16h1" />
<path stroke="#ffffff" d="M19 3h1M18 12h2M28 12h1M18 13h2M17 14h1" />
<path stroke="#e3e6ff" d="M11 6h1M25 6h1M12 7h2M23 7h2M12 8h3M22 8h3M13 9h1M16 9h5M23 9h1M15 10h1M21 10h1M14 11h1M22 11h1M14 12h1M22 12h1M14 13h1M22 13h1M14 14h1M22 14h1M14 15h1M22 15h1M14 16h1M21 16h1M11 17h2M15 17h6M23 17h1M9 18h5M22 18h3M7 19h8M23 19h2M5 20h4M11 20h4M25 20h1M8 21h2M12 21h2M4 22h2M9 22h2M12 22h2M4 23h4M10 23h3M2 24h1M5 24h4M11 24h2M2 25h1M5 25h4M11 25h1M2 26h2M6 26h4M11 26h1M3 27h2M8 27h2M4 28h2M5 29h3" />
<path stroke="#92a1b9" d="M12 6h1M24 6h1M11 7h1M14 7h1M22 7h1M25 7h1M15 8h1M21 8h1M12 9h1M14 9h2M21 9h2M24 9h1M13 10h2M22 10h2M13 15h1M12 16h2M15 16h1M22 16h2M10 17h1M13 17h2M21 17h2M24 17h1M8 18h1M14 18h3M21 18h1M6 19h1M15 19h1M22 19h1M25 19h1M4 20h1M9 20h2M24 20h1M4 21h1M7 21h1M10 21h2M14 21h1M6 22h1M11 22h1M2 23h1M8 23h1M13 23h1M4 24h1M10 24h1M3 25h1M9 25h1M12 25h1M2 27h1M7 27h1M10 27h2M3 28h1M6 28h1M4 29h1M8 29h1" />
<path stroke="#285cc4" d="M16 10h2M19 10h2M15 11h1M21 11h1M15 12h1M21 12h1M15 14h1M21 14h1M15 15h1M21 15h1M16 16h2M19 16h2" />
<path stroke="#657392" d="M3 21h1M5 21h2M3 22h1M7 22h2M3 23h1M9 23h1M3 24h1M9 24h1M4 25h1M10 25h1M4 26h2M10 26h1M5 27h2M7 28h4" />
</svg>