<svg width="32" height="32" xmlns="http://www.w3.org/2000/svg" viewBox="0 -0.5 32 32" shape-rendering="crispEdges">
<metadata>Made with Pixels to Svg https://codepen.io/shshaw/pen/XbxvNj</metadata>
<path stroke="#03193f" d="M10 3h3M10 4h1M13 4h1M10 5h1M14 5h1M10 6h1M15 6h1M9 7h1M15 7h1M9 8h1M16 8h1M8 9h1M16 9h1M7 10h1M16 10h1M7 11h1M16 11h1M8 12h1M16 12h1M7 13h1M16 13h1M5 14h2M16 14h3M5 15h1M16 15h3M5 16h1M15 16h10M4 17h1M14 17h3M25 17h2M3 18h1M13 18h3M27 18h1M3 19h1M12 19h3M28 19h1M3 20h1M8 20h6M29 20h1M3 21h5M11 21h2M29 21h1M12 22h1M26 22h4M12 23h1M24 23h2M12 24h1M20 24h1M23 24h1M11 25h1M19 25h1M21 25h2M11 26h1M18 26h1M11 27h1M16 27h3M11 28h1M15 28h1M11 29h4" />
<path stroke="#00cdf9" d="M11 4h1M12 5h2M12 6h2M13 7h2M10 8h1M13 8h2M10 9h1M14 9h2M9 10h1M14 10h2M9 11h1M14 11h2M10 12h1M15 12h1M15 13h1M6 15h2M7 16h3M9 17h2M19 17h5M4 18h2M21 18h5M6 19h2M24 19h4M26 20h2M28 21h1M15 22h1M20 22h1M23 22h2M15 23h2M21 23h2M16 24h1M13 25h1M16 25h2M13 26h1M17 26h1M14 27h1M14 28h1" />
<path stroke="#0098dc" d="M12 4h1M11 5h1M11 6h1M10 7h3M11 8h1M9 9h1M13 9h1M8 10h1M8 11h1M9 12h1M14 12h1M10 13h2M7 14h2M11 14h2M15 14h1M8 15h2M6 16h1M10 16h1M8 17h1M11 17h1M18 17h1M6 18h1M10 18h2M20 18h1M4 19h2M8 19h2M23 19h1M5 20h2M18 20h1M25 20h1M28 20h1M14 21h2M18 21h2M24 21h4M14 22h1M16 22h1M19 22h1M25 22h1M13 23h1M17 23h1M20 23h1M23 23h1M13 24h1M15 24h1M17 24h2M21 24h2M18 25h1M12 26h1M14 26h1M16 26h1M12 27h2M13 28h1" />
<path stroke="#0069aa" d="M14 6h1M15 8h1M11 9h1M10 10h2M10 11h3M11 12h2M12 13h2M10 14h1M13 14h1M12 15h4M11 16h1M14 16h1M5 17h3M12 17h2M17 17h1M24 17h1M7 18h3M16 18h2M26 18h1M10 19h1M15 19h1M17 19h3M4 20h1M7 20h1M15 20h1M17 20h1M19 20h3M16 21h1M20 21h4M13 22h1M18 22h1M21 22h2M14 23h1M14 24h1M12 25h1M14 25h2M15 26h1M15 27h1M12 28h1" />
<path stroke="#00396d" d="M12 8h1M12 9h1M12 10h2M13 11h1M13 12h1M8 13h2M14 13h1M9 14h1M14 14h1M10 15h2M12 16h2M12 18h1M18 18h2M11 19h1M16 19h1M20 19h3M14 20h1M16 20h1M22 20h3M13 21h1M17 21h1M17 22h1M18 23h2M19 24h1" />
</svg>